# xmcd CD database file
#
# Track frame offsets:
#	150
#	29360
#	59685
#	81750
#	114252
#	138142
#
# Disc length: 2195 seconds
#
# Revision: 0
# Processed by: cddbd v1.4PL0 Copyright (c) Steve Scherf et al.
# Submitted via: CDex 1.50
#
DISCID=47089106
DTITLE=Teo Macero - Teo Macero with The Prestige Jazz Quartet
DYEAR=1957
DGENRE=Jazz
TTITLE0=Ghost Story
TTITLE1=Please Don't Go Now
TTITLE2=Just Spring
TTITLE3=Star Eyes
TTITLE4=Polody
TTITLE5=What's Not
EXTD=YEAR: 1957
EXTT0=
EXTT1=
EXTT2=
EXTT3=
EXTT4=
EXTT5=
PLAYORDER=
